<?xml version="1.0" standalone="no"?>
<!DOCTYPE svg PUBLIC "-//W3C//DTD SVG 20010904//EN"
 "http://www.w3.org/TR/2001/REC-SVG-20010904/DTD/svg10.dtd">
<svg version="1.0" xmlns="http://www.w3.org/2000/svg"
 width="600.000000pt" height="600.000000pt" viewBox="0 0 600.000000 600.000000"
 preserveAspectRatio="xMidYMid meet">

<g transform="translate(0.000000,600.000000) scale(0.100000,-0.100000)"
fill="#000000" stroke="none">
<path d="M0 3000 l0 -3000 3000 0 3000 0 0 3000 0 3000 -3000 0 -3000 0 0
-3000z m1511 2135 c211 -71 349 -263 349 -485 0 -142 -43 -249 -142 -356 -92
-99 -241 -164 -373 -164 -187 0 -384 125 -463 292 -197 417 194 861 629 713z
m2834 -1344 c231 -49 403 -149 520 -301 118 -153 183 -337 222 -630 13 -95 16
-279 20 -1037 l5 -923 -451 0 -451 0 0 808 c0 870 -3 927 -53 1064 -46 126
-130 210 -247 245 -37 12 -89 17 -160 17 -165 -1 -279 -43 -364 -134 -66 -70
-101 -145 -139 -295 -6 -25 -13 -360 -16 -870 l-6 -830 -442 -3 -443 -2 0
1425 0 1425 425 0 425 0 2 -197 3 -196 36 54 c137 205 356 343 624 394 109 20
366 13 490 -14z m-2555 -1466 l0 -1425 -445 0 -445 0 0 1425 0 1425 445 0 445
0 0 -1425z"/>
</g>
</svg>
