<svg id="visual" viewBox="0 0 900 600" width="900" height="600" xmlns="http://www.w3.org/2000/svg" xmlns:xlink="http://www.w3.org/1999/xlink" version="1.1"><rect x="0" y="0" width="900" height="600" fill="#000000"></rect><path d="M0 466L21.5 458.3C43 450.7 86 435.3 128.8 429.7C171.7 424 214.3 428 257.2 435.7C300 443.3 343 454.7 385.8 467.3C428.7 480 471.3 494 514.2 493.8C557 493.7 600 479.3 642.8 471.8C685.7 464.3 728.3 463.7 771.2 451.8C814 440 857 417 878.5 405.5L900 394L900 601L878.5 601C857 601 814 601 771.2 601C728.3 601 685.7 601 642.8 601C600 601 557 601 514.2 601C471.3 601 428.7 601 385.8 601C343 601 300 601 257.2 601C214.3 601 171.7 601 128.8 601C86 601 43 601 21.5 601L0 601Z" fill="#8b0000" stroke-linecap="round" stroke-linejoin="miter"></path></svg>